<svg width="512" height="512" viewBox="0 0 180 180" fill="none" xmlns="http://www.w3.org/2000/svg">
  <defs>
    <linearGradient id="bgGrad" x1="0" y1="0" x2="180" y2="180" gradientUnits="userSpaceOnUse">
      <stop offset="0%" stop-color="#0f0c29"/>
      <stop offset="50%" stop-color="#111827"/>
      <stop offset="100%" stop-color="#0a0a1a"/>
    </linearGradient>
    <linearGradient id="hexGrad" x1="0" y1="0" x2="180" y2="180" gradientUnits="userSpaceOnUse">
      <stop offset="0%" stop-color="#7c3aed"/>
      <stop offset="50%" stop-color="#2563eb"/>
      <stop offset="100%" stop-color="#06b6d4"/>
    </linearGradient>
    <linearGradient id="strokeGrad" x1="0" y1="0" x2="180" y2="180" gradientUnits="userSpaceOnUse">
      <stop offset="0%" stop-color="#a78bfa"/>
      <stop offset="50%" stop-color="#60a5fa"/>
      <stop offset="100%" stop-color="#22d3ee"/>
    </linearGradient>
    <radialGradient id="innerGlow" cx="50%" cy="50%" r="50%" fx="50%" fy="50%">
      <stop offset="0%" stop-color="#7c3aed" stop-opacity="0.3"/>
      <stop offset="100%" stop-color="#7c3aed" stop-opacity="0"/>
    </radialGradient>
    <filter id="glow" x="-30%" y="-30%" width="160%" height="160%">
      <feGaussianBlur stdDeviation="6" result="coloredBlur"/>
      <feMerge><feMergeNode in="coloredBlur"/><feMergeNode in="SourceGraphic"/></feMerge>
    </filter>
    <filter id="softGlow" x="-50%" y="-50%" width="200%" height="200%">
      <feGaussianBlur stdDeviation="3" result="coloredBlur"/>
      <feMerge><feMergeNode in="coloredBlur"/><feMergeNode in="SourceGraphic"/></feMerge>
    </filter>
    <clipPath id="roundedSquare">
      <rect x="0" y="0" width="180" height="180" rx="40" ry="40"/>
    </clipPath>
  </defs>
  <rect x="0" y="0" width="180" height="180" rx="40" fill="url(#bgGrad)"/>
  <g clip-path="url(#roundedSquare)" opacity="0.07">
    <line x1="0" y1="0" x2="180" y2="0" stroke="#7c3aed" stroke-width="0.5"/>
    <line x1="0" y1="20" x2="180" y2="20" stroke="#7c3aed" stroke-width="0.5"/>
    <line x1="0" y1="40" x2="180" y2="40" stroke="#7c3aed" stroke-width="0.5"/>
    <line x1="0" y1="60" x2="180" y2="60" stroke="#7c3aed" stroke-width="0.5"/>
    <line x1="0" y1="80" x2="180" y2="80" stroke="#7c3aed" stroke-width="0.5"/>
    <line x1="0" y1="100" x2="180" y2="100" stroke="#7c3aed" stroke-width="0.5"/>
    <line x1="0" y1="120" x2="180" y2="120" stroke="#7c3aed" stroke-width="0.5"/>
    <line x1="0" y1="140" x2="180" y2="140" stroke="#7c3aed" stroke-width="0.5"/>
    <line x1="0" y1="160" x2="180" y2="160" stroke="#7c3aed" stroke-width="0.5"/>
    <line x1="0" y1="180" x2="180" y2="180" stroke="#7c3aed" stroke-width="0.5"/>
    <line x1="0" y1="0" x2="0" y2="180" stroke="#7c3aed" stroke-width="0.5"/>
    <line x1="20" y1="0" x2="20" y2="180" stroke="#7c3aed" stroke-width="0.5"/>
    <line x1="40" y1="0" x2="40" y2="180" stroke="#7c3aed" stroke-width="0.5"/>
    <line x1="60" y1="0" x2="60" y2="180" stroke="#7c3aed" stroke-width="0.5"/>
    <line x1="80" y1="0" x2="80" y2="180" stroke="#7c3aed" stroke-width="0.5"/>
    <line x1="100" y1="0" x2="100" y2="180" stroke="#7c3aed" stroke-width="0.5"/>
    <line x1="120" y1="0" x2="120" y2="180" stroke="#7c3aed" stroke-width="0.5"/>
    <line x1="140" y1="0" x2="140" y2="180" stroke="#7c3aed" stroke-width="0.5"/>
    <line x1="160" y1="0" x2="160" y2="180" stroke="#7c3aed" stroke-width="0.5"/>
    <line x1="180" y1="0" x2="180" y2="180" stroke="#7c3aed" stroke-width="0.5"/>
  </g>
  <rect x="0" y="0" width="180" height="180" rx="40" fill="url(#innerGlow)"/>
  <polygon points="90,18 152,54 152,126 90,162 28,126 28,54" fill="none" stroke="url(#strokeGrad)" stroke-width="1.5" opacity="0.35" filter="url(#glow)"/>
  <polygon points="90,34 136,60 136,120 90,146 44,120 44,60" fill="none" stroke="url(#strokeGrad)" stroke-width="1" opacity="0.2"/>
  <polygon points="90,46 128,68 128,112 90,134 52,112 52,68" fill="url(#hexGrad)" opacity="0.12"/>
  <circle cx="90" cy="18" r="3" fill="#a78bfa" opacity="0.8" filter="url(#softGlow)"/>
  <circle cx="152" cy="54" r="3" fill="#60a5fa" opacity="0.8" filter="url(#softGlow)"/>
  <circle cx="152" cy="126" r="3" fill="#22d3ee" opacity="0.8" filter="url(#softGlow)"/>
  <circle cx="90" cy="162" r="3" fill="#a78bfa" opacity="0.8" filter="url(#softGlow)"/>
  <circle cx="28" cy="126" r="3" fill="#60a5fa" opacity="0.8" filter="url(#softGlow)"/>
  <circle cx="28" cy="54" r="3" fill="#22d3ee" opacity="0.8" filter="url(#softGlow)"/>
  <path d="M62 72 L48 90 L62 108" stroke="url(#strokeGrad)" stroke-width="5" stroke-linecap="round" stroke-linejoin="round" fill="none" filter="url(#glow)"/>
  <path d="M118 72 L132 90 L118 108" stroke="url(#strokeGrad)" stroke-width="5" stroke-linecap="round" stroke-linejoin="round" fill="none" filter="url(#glow)"/>
  <line x1="99" y1="68" x2="81" y2="112" stroke="url(#strokeGrad)" stroke-width="4.5" stroke-linecap="round" filter="url(#glow)"/>
  <rect x="88" y="112" width="10" height="3.5" rx="1.5" fill="#22d3ee" opacity="0.9" filter="url(#softGlow)"/>
  <circle cx="68" cy="52" r="2" fill="#7c3aed" opacity="0.5"/>
  <circle cx="76" cy="52" r="2" fill="#7c3aed" opacity="0.5"/>
  <circle cx="84" cy="52" r="2" fill="#7c3aed" opacity="0.5"/>
  <text x="90" y="154" text-anchor="middle" fill="#60a5fa" font-size="9" font-family="'Courier New', monospace" opacity="0.7" letter-spacing="1.5">5.3-codex</text>
  <rect x="1" y="1" width="178" height="178" rx="39" fill="none" stroke="url(#strokeGrad)" stroke-width="1.5" opacity="0.4"/>
</svg>